<svg width="200" height="200" viewBox="0 0 200 200" fill="none" xmlns="http://www.w3.org/2000/svg">
    <path d="M100 5.35898L189.904 52.6795V147.321L100 194.641L10.0962 147.321V52.6795L100 5.35898Z" fill="#009688"/>

    <path fill-rule="evenodd" clip-rule="evenodd" d="M60 65C57.2386 65 55 67.2386 55 70V120C55 122.761 57.2386 125 60 125H140C142.761 125 145 122.761 145 120V70C145 67.2386 142.761 65 140 65H60ZM70 80C70 77.2386 67.7614 75 65 75C62.2386 75 60 77.2386 60 80V110C60 112.761 62.2386 115 65 115C67.7614 115 70 112.761 70 110V80Z" fill="#FFFFFF"/>
    <path d="M85 135C85 132.239 87.2386 130 90 130H110C112.761 130 115 132.239 115 135V135C115 137.761 112.761 140 110 140H90C87.2386 140 85 137.761 85 135V135Z" fill="#FFFFFF"/>
</svg>
